PathFileType	4	(X/Y/Z)	Run_500 03
DataRate	CameraRate	NumFrames	NumMarkers	Units	OrigDataRate	OrigDataStartFrame	OrigNumFrames
100	100	4	45	mm	100	281	137
Frame#	Time	RASI			LPSI			RPSI			RTH1			RTH2			RTH3			LTH1			LTH2			LTH3			RTB1			RTB2			RTB3			RLMAL			RMMAL			LTB1			LTB2			LTB3			RCAL			RTOE			RMT5			LCAL			LTOE			LMT5			LACR			RACR			CLAV			C7			LPSH			RUA1			RUA2			RUA3			RLEL			RMEL			LUA1			LUA2			LUA3			LLEL			LMEL			RFAsuperior			RFAradius			RFAulna			LFAsuperior			LFAradius			LFAulna			LASI		
		X1	Y1	Z1	X2	Y2	Z2	X3	Y3	Z3	X4	Y4	Z4	X5	Y5	Z5	X6	Y6	Z6	X7	Y7	Z7	X8	Y8	Z8	X9	Y9	Z9	X10	Y10	Z10	X11	Y11	Z11	X12	Y12	Z12	X13	Y13	Z13	X14	Y14	Z14	X15	Y15	Z15	X16	Y16	Z16	X17	Y17	Z17	X18	Y18	Z18	X19	Y19	Z19	X20	Y20	Z20	X21	Y21	Z21	X22	Y22	Z22	X23	Y23	Z23	X24	Y24	Z24	X25	Y25	Z25	X26	Y26	Z26	X27	Y27	Z27	X28	Y28	Z28	X29	Y29	Z29	X30	Y30	Z30	X31	Y31	Z31	X32	Y32	Z32	X33	Y33	Z33	X34	Y34	Z34	X35	Y35	Z35	X36	Y36	Z36	X37	Y37	Z37	X38	Y38	Z38	X39	Y39	Z39	X40	Y40	Z40	X41	Y41	Z41	X42	Y42	Z42	X43	Y43	Z43	X44	Y44	Z44	X45	Y45	Z45	

281	  2.810000	917.145165	1066.765099	-221.998579	756.546632	1090.398216	-385.959942	755.105835	1090.372940	-294.748673	899.227519	807.918887	-159.842312	997.152729	771.599916	-179.987130	970.768531	655.727926	-191.119269	760.026913	837.259706	-487.499307	800.710923	712.695908	-484.229491	724.908743	634.136490	-463.415811	1093.987481	437.412881	-238.923218	1064.919316	372.571415	-198.495553	1112.578625	255.373342	-249.439133	1093.687855	131.152220	-239.605734	1114.607664	165.019486	-316.501544	596.518255	476.381580	-425.716884	489.859047	562.643663	-423.006751	405.969788	489.991315	-388.516189	1040.841865	113.371248	-311.306512	1263.175311	102.998259	-283.584693	1193.692054	 62.271551	-220.628746	281.077531	580.842783	-309.806726	211.600274	374.766616	-364.506275	196.597611	448.117510	-415.070031	901.871847	1576.063958	-455.199267	855.411559	1532.236833	-153.464772	943.481556	1484.630146	-275.772747	828.857123	1573.526583	-310.367581	824.514965	1539.906298	-487.890412	745.974170	1426.282577	-78.112679	665.100627	1403.334548	-123.054635	634.693002	1358.309490	-80.091269	609.030074	1295.387334	-48.243050	609.162921	1278.558628	-135.762064	846.090136	1461.974550	-555.447389	783.900427	1384.947609	-563.925589	819.796154	1344.251234	-617.172559	832.112170	1266.697192	-641.661352	771.767286	1248.921751	-572.939570	641.570845	1222.295264	-44.699696	835.503749	1171.974974	-64.488297	802.806675	1117.107362	-41.908232	890.014383	1226.530813	-573.273295	983.938901	1306.948948	-447.197216	1010.510362	1245.585681	-463.260942	917.360727	1047.574874	-452.702018	
282	  2.820000	916.302129	1059.263900	-222.160959	752.992470	1082.716274	-383.545163	753.350377	1083.722297	-293.594186	897.237702	801.690037	-162.411726	994.139825	766.882052	-184.433438	964.233503	648.708800	-192.795658	764.092930	825.810514	-486.840253	810.854397	703.198712	-485.875211	739.600631	621.635179	-464.808709	1078.813197	424.185351	-241.227453	1046.910001	360.462139	-200.633710	1086.248406	240.803860	-251.964614	1060.269658	120.528713	-241.497790	1080.521939	151.197055	-319.344582	615.750374	470.023503	-428.648541	513.792241	562.131160	-426.620715	426.611386	494.706660	-391.411962	1004.330262	104.675263	-313.795169	1227.844974	 85.807098	-286.845707	1155.076448	 53.893631	-221.535112	305.103701	592.765187	-313.118960	230.609248	388.677796	-368.402955	218.145501	462.343509	-419.145414	901.063803	1569.193473	-454.584051	859.472288	1522.443624	-151.650612	945.000824	1476.591821	-276.014980	829.945199	1565.933943	-308.541723	822.704407	1533.455957	-485.539786	753.315854	1413.570369	-73.159573	671.148692	1389.528969	-115.395846	643.054326	1343.814332	-71.644311	619.496949	1280.420313	-39.082770	616.714419	1263.516138	-125.807451	841.627923	1457.904383	-555.078152	778.362370	1382.528231	-564.666435	812.665767	1342.110017	-619.369517	822.442047	1264.705087	-645.735437	763.051139	1247.058390	-576.364497	653.090270	1207.502601	-36.454164	846.926715	1158.371794	-61.146453	815.063174	1103.497933	-37.410460	880.122766	1218.944577	-580.676885	981.169765	1289.964577	-454.542577	1004.079096	1228.089834	-473.282938	914.574377	1040.041224	-452.557276	
283	  2.830000	914.830852	1050.832848	-221.452421	749.222711	1074.912197	-380.937523	750.060610	1077.116792	-291.924670	893.590404	795.673274	-163.351475	989.952041	760.813365	-189.842895	958.253959	641.168123	-195.008037	768.984234	813.586230	-486.608083	822.163904	693.347106	-487.505081	755.858169	608.713048	-466.392527	1062.310233	411.918929	-246.298768	1027.139733	349.855143	-205.517622	1054.909231	227.992335	-257.577953	1019.474683	114.180331	-245.430484	1038.542381	140.165147	-324.597433	637.611808	463.006340	-431.810703	539.843130	559.628812	-430.775369	450.028058	496.845297	-394.853005	960.004767	 98.522660	-317.349111	1185.130252	 74.429348	-289.624716	1109.587400	 52.268537	-222.138607	331.503731	601.358064	-317.673593	253.561583	398.362131	-371.732213	242.562821	471.830830	-422.962032	900.065910	1561.150854	-454.426677	863.801314	1512.046473	-150.098420	946.770964	1467.581639	-276.556798	831.111260	1557.094292	-306.889384	820.781156	1525.725944	-483.415958	761.500216	1399.720522	-67.926292	678.119414	1374.354557	-107.441237	652.597788	1327.951549	-62.687237	631.302115	1264.281105	-29.611933	624.535794	1247.795510	-115.317565	836.442357	1452.581500	-554.586502	772.189600	1378.902800	-564.923247	804.362332	1339.156589	-621.601254	811.591820	1262.003592	-649.977900	753.558219	1244.387486	-579.672815	666.127517	1191.723186	-28.020191	859.722662	1143.873247	-58.116050	828.800831	1088.954485	-33.370804	869.011365	1210.856531	-588.688727	977.184807	1272.252285	-463.414054	996.415747	1210.119468	-484.939202	911.625849	1031.602037	-451.437756	
284	  2.840000	911.780788	1042.032815	-220.025229	745.239200	1067.411670	-378.973918	745.750909	1070.941466	-290.480519	888.170553	790.753457	-162.539792	984.304583	754.095253	-194.251644	953.525642	634.532347	-197.639093	774.580367	801.095360	-486.299402	834.423280	683.782115	-488.828555	773.738991	596.220046	-467.923819	1045.096695	403.018036	-253.718115	1006.097410	343.721513	-212.522218	1020.745341	220.155198	-265.031007	974.174039	113.041751	-250.921842	992.974523	134.547743	-331.182182	662.239913	455.934973	-434.368414	567.791638	555.434640	-435.459385	475.996643	496.421452	-398.418575	911.598924	 96.242106	-321.448033	1137.994154	 69.126403	-291.482560	1060.771075	 54.477407	-222.886967	360.089942	606.528790	-323.608437	279.694492	403.619616	-374.200536	269.645537	476.390203	-426.654066	898.931072	1552.358142	-454.843582	868.231565	1501.615391	-148.547217	948.975855	1457.843699	-277.268839	832.507651	1547.584244	-305.251650	818.769106	1517.187173	-481.688820	770.468335	1384.976287	-62.746407	686.111257	1358.023080	-99.360281	663.491767	1310.889660	-53.396495	644.666352	1247.186137	-20.165611	633.947170	1231.167553	-105.181271	830.717985	1446.143688	-554.113929	765.470336	1374.138527	-564.588272	794.772372	1335.597297	-623.709164	799.528936	1258.900672	-654.165548	743.439043	1241.062369	-582.778643	680.687244	1175.186742	-19.782543	873.868563	1128.801933	-55.616421	844.010369	1073.787078	-29.857242	856.644942	1202.733668	-596.993301	971.768969	1254.269380	-473.500179	987.453636	1192.153980	-497.985557	908.483054	1022.576323	-449.440236	
